# xmcd CD database file
#
# Track frame offsets:
#	150
#	24797
#	48177
#	68755
#	85770
#	114437
#	126801
#	146163
#
# Disc length: 2193 seconds
#
# Revision: 0
# Processed by: cddbd v1.5.2PL0 Copyright (c) Steve Scherf et al.
# Submitted via: CDex 1.70beta2
#
DISCID=60088f08
DTITLE=Azuquita - Pura Salsa
DYEAR=1974
DGENRE=Salsa
TTITLE0=California
TTITLE1=Coco De Maria
TTITLE2=Salsa Na Ma
TTITLE3=Cuarto Bate
TTITLE4=Guajiro Bacan
TTITLE5=El Tranquilo
TTITLE6=Saludo A Panama
TTITLE7=En Casa Si Ña Jacinta
EXTD=YEAR: 1974
EXTT0=
EXTT1=
EXTT2=
EXTT3=
EXTT4=
EXTT5=
EXTT6=
EXTT7=
PLAYORDER=
